<svg width="414" height="43" viewBox="0 0 414 43" fill="none" xmlns="http://www.w3.org/2000/svg">
<path d="M20.134 34.204C17.074 34.204 14.371 33.898 11.974 33.337C9.577 32.776 7.69 32.062 6.313 31.195C4.936 30.328 3.763 29.308 2.845 28.084C1.978 26.86 1.366 25.687 1.06 24.514C0.754 23.392 0.601 22.168 0.601 20.944V19.975C0.601 18.751 0.754 17.578 1.06 16.405C1.366 15.283 1.978 14.161 2.845 12.937C3.712 11.764 4.885 10.795 6.262 9.928C7.69 9.061 9.577 8.398 11.923 7.837C14.32 7.327 17.023 7.021 20.083 7.021H23.041C26.356 7.021 29.314 7.327 31.813 7.888C34.312 8.449 36.25 9.163 37.576 9.979C38.902 10.795 39.973 11.764 40.84 12.835C41.656 13.957 42.166 14.926 42.421 15.742C42.625 16.609 42.727 17.425 42.727 18.292V18.394H30.793C30.028 15.334 26.917 13.753 21.511 13.753H21.358C18.247 13.753 16.003 14.365 14.575 15.589C13.147 16.762 12.484 18.292 12.484 20.128V20.485C12.484 22.423 13.198 24.055 14.575 25.381C16.003 26.707 18.298 27.37 21.358 27.37H21.511C26.866 27.37 29.977 25.789 30.793 22.627H42.727V22.729C42.727 23.596 42.625 24.463 42.421 25.33C42.217 26.146 41.707 27.166 40.942 28.288C40.126 29.41 39.055 30.379 37.729 31.195C36.403 32.011 34.465 32.725 31.915 33.286C29.365 33.898 26.407 34.204 22.99 34.204H20.134ZM83.8693 27.115H85.2973V34.306H76.3723C73.9243 34.306 72.5473 33.082 72.1393 30.685C71.3233 31.654 69.9463 32.623 67.9573 33.49C65.9683 34.357 63.2653 34.765 59.8483 34.765H59.2363C55.0543 34.765 51.9433 33.949 49.9033 32.317C47.8633 30.685 46.8943 28.645 46.8943 26.146V25.789C46.8943 23.392 47.7103 21.556 49.4443 20.281C51.1783 19.057 54.0343 18.241 58.0123 17.884L70.2013 16.762C71.2723 16.609 71.8333 16.15 71.8333 15.385C71.8333 14.926 71.7313 14.62 71.5273 14.314C71.3233 14.059 70.6603 13.804 69.5893 13.6C68.5183 13.345 66.9373 13.192 64.9483 13.192L46.8943 13.243V7.123H66.0703C69.0283 7.123 71.5783 7.276 73.6693 7.633C75.8113 7.99 77.3923 8.449 78.5143 8.959C79.6363 9.52 80.5033 10.183 81.1153 10.999C81.7783 11.866 82.1353 12.58 82.2883 13.243C82.3903 13.906 82.4923 14.722 82.4923 15.64V25.789C82.4923 26.656 82.9513 27.115 83.8693 27.115ZM71.8333 22.525V21.709L61.3273 23.341C59.8483 23.545 58.8283 23.851 58.2163 24.208C57.6553 24.565 57.3493 25.075 57.3493 25.789V25.84C57.3493 26.656 57.7063 27.37 58.4713 27.982C59.2363 28.543 60.4603 28.849 62.1943 28.849C64.9993 28.849 67.3453 28.186 69.1303 26.911C70.9663 25.636 71.8333 24.208 71.8333 22.525ZM88.9545 7.633H100.532V11.356C104.153 8.449 108.896 7.021 114.812 7.021H115.73C118.841 7.021 121.493 7.378 123.737 8.041C125.981 8.704 127.715 9.622 128.99 10.846C130.265 12.07 131.183 13.447 131.795 14.926C132.356 16.405 132.662 18.088 132.662 19.924V20.842C132.662 22.627 132.356 24.259 131.744 25.789C131.132 27.268 130.214 28.645 128.888 29.92C127.562 31.195 125.777 32.215 123.482 32.929C121.187 33.643 118.484 34 115.373 34H114.506C110.936 34 107.927 33.49 105.479 32.521C103.031 31.552 101.399 30.583 100.532 29.767V42.364H88.9545V7.633ZM100.532 20.332V20.536C100.532 22.321 101.45 23.851 103.286 25.228C105.071 26.554 107.621 27.217 110.936 27.217H111.191C114.608 27.217 117.056 26.554 118.535 25.228C120.014 23.953 120.779 22.372 120.779 20.536V20.332C120.779 18.394 120.065 16.813 118.586 15.589C117.107 14.314 114.608 13.702 111.191 13.702H110.936C107.519 13.702 104.918 14.314 103.184 15.64C101.45 16.966 100.532 18.496 100.532 20.332ZM154.743 34.612C142.707 34.612 136.74 31.603 136.74 25.483V25.177H148.725C148.725 27.523 151.122 28.696 155.916 28.696H156.018C158.007 28.696 159.588 28.543 160.71 28.288C161.832 28.033 162.546 27.778 162.852 27.472C163.107 27.115 163.26 26.758 163.26 26.248V26.146C163.26 25.432 162.852 24.871 162.087 24.514C161.271 24.157 159.639 23.953 157.089 23.902L152.091 23.8C149.184 23.749 146.685 23.494 144.594 22.984C142.554 22.525 140.973 21.862 139.902 21.097C138.882 20.281 138.117 19.465 137.658 18.598C137.199 17.731 136.995 16.813 136.995 15.793V15.487C136.995 14.62 137.097 13.804 137.301 13.09C137.556 12.427 138.015 11.662 138.78 10.948C139.545 10.234 140.514 9.622 141.789 9.112C143.013 8.653 144.747 8.245 146.94 7.939C149.133 7.633 151.734 7.48 154.692 7.48H156.783C168.513 7.48 174.378 10.132 174.378 15.538V15.895H162.495C162.444 15.538 162.342 15.283 162.189 15.028C162.087 14.824 161.781 14.518 161.373 14.212C160.965 13.906 160.251 13.702 159.282 13.498C158.262 13.345 157.038 13.243 155.61 13.243H155.559C152.907 13.243 151.122 13.396 150.204 13.702C149.337 13.957 148.878 14.467 148.878 15.181V15.232C148.878 15.895 149.286 16.405 150.102 16.711C150.969 17.068 152.499 17.272 154.743 17.323L159.741 17.425C163.974 17.476 167.238 17.833 169.533 18.496C171.879 19.159 173.46 20.026 174.225 21.097C174.99 22.168 175.398 23.647 175.398 25.483V25.789C175.398 27.064 175.143 28.237 174.633 29.206C174.123 30.175 173.256 31.093 171.981 31.96C170.706 32.827 168.819 33.49 166.269 33.949C163.719 34.408 160.608 34.612 156.885 34.612H154.743ZM191.843 33.745C187.202 33.745 184.907 31.348 184.907 26.452V15.13H179.45V8.041H184.907V0.543999H196.382V8.041H201.89V15.13H196.382V24.463C196.382 25.228 196.535 25.789 196.841 26.146C197.147 26.503 197.759 26.707 198.728 26.707H201.89V33.745H191.843ZM289.965 7.786C301.95 7.786 307.917 12.019 307.917 20.383V21.25C307.917 29.818 301.95 34.153 289.965 34.153H224.073C221.268 34.153 218.82 33.847 216.627 33.337C214.485 32.776 212.751 32.113 211.425 31.246C210.15 30.43 209.079 29.41 208.212 28.237C207.396 27.064 206.835 25.942 206.529 24.769C206.223 23.647 206.07 22.474 206.07 21.25V20.383C206.07 19.159 206.223 17.986 206.529 16.864C206.835 15.793 207.396 14.62 208.212 13.498C209.028 12.376 210.099 11.356 211.425 10.54C212.7 9.724 214.434 9.061 216.576 8.551C218.769 8.041 221.217 7.786 224.022 7.786H289.965ZM298.533 20.944V20.74C298.533 19.159 297.819 17.782 296.34 16.711C295.014 15.691 292.821 15.181 289.863 15.079C289.659 15.079 225.144 15.079 224.94 15.079H224.889C221.523 15.079 219.075 15.64 217.647 16.711C216.219 17.782 215.505 19.108 215.505 20.74V20.944C215.505 22.525 216.219 23.902 217.698 25.024C219.126 26.197 221.523 26.758 224.889 26.758C225.144 26.758 289.71 26.758 289.965 26.758C292.923 26.656 295.014 26.095 296.34 25.024C297.819 23.902 298.533 22.525 298.533 20.944ZM248.145 25.789L255.183 16.099H265.791L258.753 25.789H248.145ZM312.179 8.041H323.654V12.427C327.275 9.112 331.916 7.48 337.577 7.48H337.985C342.524 7.48 345.941 8.449 348.185 10.387C350.48 12.376 351.602 14.722 351.602 17.527V33.745H339.872V21.046C339.872 19.006 339.26 17.425 338.036 16.303C336.761 15.181 334.874 14.62 332.375 14.62C329.774 14.62 327.683 15.283 326.102 16.558C324.572 17.833 323.756 19.516 323.756 21.607V33.745H312.179V8.041ZM398.776 24.514C398.776 25.33 398.674 26.095 398.419 26.86C398.164 27.676 397.654 28.492 396.838 29.41C395.971 30.379 394.9 31.144 393.574 31.858C392.248 32.521 390.412 33.133 387.964 33.592C385.567 34.051 382.762 34.255 379.549 34.255H376.591C372.97 34.255 369.859 33.898 367.207 33.184C364.555 32.47 362.515 31.45 361.036 30.175C359.608 28.9 358.537 27.523 357.823 26.044C357.16 24.565 356.854 22.882 356.854 21.097V20.077C356.854 18.292 357.16 16.711 357.772 15.232C358.384 13.753 359.404 12.427 360.832 11.152C362.209 9.877 364.249 8.908 366.85 8.194C369.502 7.48 372.613 7.123 376.285 7.123H379.447C392.452 7.123 398.929 11.713 398.929 20.995V22.729H368.227C368.992 26.095 372.307 27.778 378.172 27.778H378.223C379.651 27.778 380.977 27.676 382.099 27.472C383.221 27.268 384.088 27.064 384.7 26.758C385.363 26.503 385.873 26.197 386.281 25.891C386.638 25.534 386.944 25.279 387.046 25.075C387.199 24.871 387.301 24.667 387.301 24.463H398.776V24.514ZM377.815 13.09H377.764C372.511 13.09 369.4 14.518 368.431 17.425H387.199C386.383 14.518 383.272 13.09 377.815 13.09ZM413.348 28.084V35.122H402.791V28.084H413.348Z" fill="white"/>
</svg>
